<mxfile host="app.diagrams.net" modified="2023-04-26T19:42:53.502Z" agent="Mozilla/5.0 (Windows NT 10.0; Win64; x64) AppleWebKit/537.36 (KHTML, like Gecko) Chrome/111.0.0.0 Safari/537.36 OPR/97.0.0.0" etag="Z8uRJpn076aXG5HA9pLW" version="21.2.2" type="device">
  <diagram name="Page-1" id="AHl4STi8qhLNb-HcpxUn">
    <mxGraphModel dx="2033" dy="1149" grid="1" gridSize="10" guides="1" tooltips="1" connect="1" arrows="1" fold="1" page="1" pageScale="1" pageWidth="850" pageHeight="1100" math="0" shadow="0">
      <root>
        <mxCell id="0" />
        <mxCell id="1" parent="0" />
        <mxCell id="Ewd7SPHfMNj54ojzdzi_-1" value="2" style="ellipse;whiteSpace=wrap;html=1;aspect=fixed;fontSize=18;" parent="1" vertex="1">
          <mxGeometry x="335" y="253" width="80" height="80" as="geometry" />
        </mxCell>
        <mxCell id="Ewd7SPHfMNj54ojzdzi_-2" value="1" style="ellipse;whiteSpace=wrap;html=1;aspect=fixed;fontSize=18;fillColor=#f8cecc;strokeColor=#b85450;" parent="1" vertex="1">
          <mxGeometry x="85" y="123" width="80" height="80" as="geometry" />
        </mxCell>
        <mxCell id="Ewd7SPHfMNj54ojzdzi_-3" value="1" style="ellipse;whiteSpace=wrap;html=1;aspect=fixed;fontSize=18;fillColor=#f8cecc;strokeColor=#b85450;" parent="1" vertex="1">
          <mxGeometry x="245" y="23" width="80" height="80" as="geometry" />
        </mxCell>
        <mxCell id="Ewd7SPHfMNj54ojzdzi_-4" value="4" style="ellipse;whiteSpace=wrap;html=1;aspect=fixed;fontSize=18;fillColor=#dae8fc;strokeColor=#6c8ebf;" parent="1" vertex="1">
          <mxGeometry x="635" y="253" width="80" height="80" as="geometry" />
        </mxCell>
        <mxCell id="Ewd7SPHfMNj54ojzdzi_-5" value="2" style="ellipse;whiteSpace=wrap;html=1;aspect=fixed;fontSize=18;fillColor=#e1d5e7;strokeColor=#9673a6;" parent="1" vertex="1">
          <mxGeometry x="595" y="123" width="80" height="80" as="geometry" />
        </mxCell>
        <mxCell id="Ewd7SPHfMNj54ojzdzi_-6" value="4" style="ellipse;whiteSpace=wrap;html=1;aspect=fixed;fontSize=18;fillColor=#dae8fc;strokeColor=#6c8ebf;" parent="1" vertex="1">
          <mxGeometry x="445" y="513" width="80" height="80" as="geometry" />
        </mxCell>
        <mxCell id="Ewd7SPHfMNj54ojzdzi_-7" value="5" style="ellipse;whiteSpace=wrap;html=1;aspect=fixed;fontSize=18;fillColor=#d5e8d4;strokeColor=#82b366;" parent="1" vertex="1">
          <mxGeometry x="35" y="253" width="80" height="80" as="geometry" />
        </mxCell>
        <mxCell id="Ewd7SPHfMNj54ojzdzi_-8" value="5" style="ellipse;whiteSpace=wrap;html=1;aspect=fixed;fontSize=18;fillColor=#d5e8d4;strokeColor=#82b366;" parent="1" vertex="1">
          <mxGeometry x="245" y="513" width="80" height="80" as="geometry" />
        </mxCell>
        <mxCell id="Ewd7SPHfMNj54ojzdzi_-9" value="5" style="ellipse;whiteSpace=wrap;html=1;aspect=fixed;fontSize=18;fillColor=#d5e8d4;strokeColor=#82b366;" parent="1" vertex="1">
          <mxGeometry x="85" y="383" width="80" height="80" as="geometry" />
        </mxCell>
        <mxCell id="Ewd7SPHfMNj54ojzdzi_-10" value="TTT" style="endArrow=classic;html=1;rounded=0;entryX=1;entryY=1;entryDx=0;entryDy=0;exitX=0;exitY=0;exitDx=0;exitDy=0;fontSize=18;" parent="1" source="Ewd7SPHfMNj54ojzdzi_-1" target="Ewd7SPHfMNj54ojzdzi_-2" edge="1">
          <mxGeometry x="-0.0049" width="50" height="50" relative="1" as="geometry">
            <mxPoint x="295" y="413" as="sourcePoint" />
            <mxPoint x="345" y="363" as="targetPoint" />
            <mxPoint as="offset" />
          </mxGeometry>
        </mxCell>
        <mxCell id="Ewd7SPHfMNj54ojzdzi_-11" value="NTT&lt;br&gt;1-35" style="endArrow=classic;html=1;rounded=0;exitX=0.5;exitY=0;exitDx=0;exitDy=0;entryX=0.5;entryY=1;entryDx=0;entryDy=0;fontSize=18;" parent="1" source="Ewd7SPHfMNj54ojzdzi_-1" target="Ewd7SPHfMNj54ojzdzi_-3" edge="1">
          <mxGeometry width="50" height="50" relative="1" as="geometry">
            <mxPoint x="295" y="413" as="sourcePoint" />
            <mxPoint x="435" y="133" as="targetPoint" />
          </mxGeometry>
        </mxCell>
        <mxCell id="Ewd7SPHfMNj54ojzdzi_-12" value="NNT&lt;br style=&quot;font-size: 18px;&quot;&gt;67-70" style="endArrow=classic;html=1;rounded=0;entryX=0;entryY=1;entryDx=0;entryDy=0;exitX=1;exitY=0;exitDx=0;exitDy=0;fontSize=18;" parent="1" source="Ewd7SPHfMNj54ojzdzi_-1" target="Ewd7SPHfMNj54ojzdzi_-5" edge="1">
          <mxGeometry width="50" height="50" relative="1" as="geometry">
            <mxPoint x="295" y="413" as="sourcePoint" />
            <mxPoint x="345" y="363" as="targetPoint" />
          </mxGeometry>
        </mxCell>
        <mxCell id="Ewd7SPHfMNj54ojzdzi_-13" value="NNN&lt;br style=&quot;font-size: 18px;&quot;&gt;20 N(≤17)" style="endArrow=classic;html=1;rounded=0;entryX=0;entryY=0.5;entryDx=0;entryDy=0;exitX=1;exitY=0.5;exitDx=0;exitDy=0;fontSize=18;" parent="1" source="Ewd7SPHfMNj54ojzdzi_-1" target="Ewd7SPHfMNj54ojzdzi_-4" edge="1">
          <mxGeometry width="50" height="50" relative="1" as="geometry">
            <mxPoint x="295" y="413" as="sourcePoint" />
            <mxPoint x="345" y="363" as="targetPoint" />
          </mxGeometry>
        </mxCell>
        <mxCell id="Ewd7SPHfMNj54ojzdzi_-14" value="NNN&lt;br style=&quot;font-size: 18px;&quot;&gt;21 N(≤14)" style="endArrow=classic;html=1;rounded=0;entryX=0.5;entryY=0;entryDx=0;entryDy=0;exitX=0.5;exitY=1;exitDx=0;exitDy=0;fontSize=18;" parent="1" source="Ewd7SPHfMNj54ojzdzi_-1" target="Ewd7SPHfMNj54ojzdzi_-6" edge="1">
          <mxGeometry x="0.3734" y="4" width="50" height="50" relative="1" as="geometry">
            <mxPoint x="295" y="413" as="sourcePoint" />
            <mxPoint x="345" y="363" as="targetPoint" />
            <mxPoint as="offset" />
          </mxGeometry>
        </mxCell>
        <mxCell id="Ewd7SPHfMNj54ojzdzi_-15" value="NNN&lt;br style=&quot;font-size: 18px;&quot;&gt;20 N(≥18)" style="endArrow=classic;html=1;rounded=0;exitX=0.5;exitY=1;exitDx=0;exitDy=0;entryX=0.5;entryY=0;entryDx=0;entryDy=0;fontSize=18;" parent="1" source="Ewd7SPHfMNj54ojzdzi_-1" target="Ewd7SPHfMNj54ojzdzi_-8" edge="1">
          <mxGeometry x="0.4222" y="4" width="50" height="50" relative="1" as="geometry">
            <mxPoint x="295" y="413" as="sourcePoint" />
            <mxPoint x="345" y="363" as="targetPoint" />
            <mxPoint as="offset" />
          </mxGeometry>
        </mxCell>
        <mxCell id="Ewd7SPHfMNj54ojzdzi_-16" value="NNN&lt;br style=&quot;font-size: 18px;&quot;&gt;21 N(≥16) | N(≥15)N(≥3)" style="endArrow=classic;html=1;rounded=0;exitX=0;exitY=1;exitDx=0;exitDy=0;entryX=1;entryY=0;entryDx=0;entryDy=0;fontSize=18;" parent="1" source="Ewd7SPHfMNj54ojzdzi_-1" target="Ewd7SPHfMNj54ojzdzi_-9" edge="1">
          <mxGeometry width="50" height="50" relative="1" as="geometry">
            <mxPoint x="295" y="413" as="sourcePoint" />
            <mxPoint x="345" y="363" as="targetPoint" />
          </mxGeometry>
        </mxCell>
        <mxCell id="Ewd7SPHfMNj54ojzdzi_-17" value="NNN&lt;br style=&quot;font-size: 18px;&quot;&gt;22-105" style="endArrow=classic;html=1;rounded=0;exitX=0;exitY=0.5;exitDx=0;exitDy=0;entryX=1;entryY=0.5;entryDx=0;entryDy=0;fontSize=18;" parent="1" source="Ewd7SPHfMNj54ojzdzi_-1" target="Ewd7SPHfMNj54ojzdzi_-7" edge="1">
          <mxGeometry width="50" height="50" relative="1" as="geometry">
            <mxPoint x="295" y="413" as="sourcePoint" />
            <mxPoint x="345" y="363" as="targetPoint" />
          </mxGeometry>
        </mxCell>
        <mxCell id="GII92Zldkrk3Pcei2fr3-1" value="1" style="ellipse;whiteSpace=wrap;html=1;aspect=fixed;fontSize=18;fillColor=#f8cecc;strokeColor=#b85450;" vertex="1" parent="1">
          <mxGeometry x="445" y="23" width="80" height="80" as="geometry" />
        </mxCell>
        <mxCell id="GII92Zldkrk3Pcei2fr3-2" value="NNT&lt;br&gt;2-66" style="endArrow=classic;html=1;rounded=0;exitX=0.5;exitY=0;exitDx=0;exitDy=0;entryX=0.5;entryY=1;entryDx=0;entryDy=0;fontSize=18;" edge="1" parent="1" target="GII92Zldkrk3Pcei2fr3-1" source="Ewd7SPHfMNj54ojzdzi_-1">
          <mxGeometry width="50" height="50" relative="1" as="geometry">
            <mxPoint x="545" y="253" as="sourcePoint" />
            <mxPoint x="605" y="133" as="targetPoint" />
          </mxGeometry>
        </mxCell>
        <mxCell id="GII92Zldkrk3Pcei2fr3-3" value="4" style="ellipse;whiteSpace=wrap;html=1;aspect=fixed;fontSize=18;fillColor=#dae8fc;strokeColor=#6c8ebf;" vertex="1" parent="1">
          <mxGeometry x="595" y="383" width="80" height="80" as="geometry" />
        </mxCell>
        <mxCell id="GII92Zldkrk3Pcei2fr3-4" value="NNN&lt;br style=&quot;font-size: 18px;&quot;&gt;21 N(≤14) | N(≤15)N(≤3)" style="endArrow=classic;html=1;rounded=0;entryX=0;entryY=0;entryDx=0;entryDy=0;exitX=1;exitY=1;exitDx=0;exitDy=0;fontSize=18;" edge="1" parent="1" target="GII92Zldkrk3Pcei2fr3-3" source="Ewd7SPHfMNj54ojzdzi_-1">
          <mxGeometry x="-0.0013" width="50" height="50" relative="1" as="geometry">
            <mxPoint x="505" y="233" as="sourcePoint" />
            <mxPoint x="475" y="263" as="targetPoint" />
            <mxPoint as="offset" />
          </mxGeometry>
        </mxCell>
      </root>
    </mxGraphModel>
  </diagram>
</mxfile>
